<svg width="506" height="167" viewBox="0 0 506 167" fill="none" xmlns="http://www.w3.org/2000/svg">
<g clip-path="url(#clip0)">
<path d="M239.555 72.2124H270.805C271.456 72.2124 271.781 72.5379 271.781 73.189V80.0249C271.781 80.6759 271.456 81.0015 270.805 81.0015H239.555C235.518 81.0015 232.068 79.5692 229.203 76.7046C226.339 73.84 224.906 70.3895 224.906 66.353V39.9858C224.906 35.9494 226.339 32.4989 229.203 29.6343C232.068 26.7697 235.518 25.3374 239.555 25.3374H270.805C271.456 25.3374 271.781 25.6629 271.781 26.314V33.1499C271.781 33.8009 271.456 34.1265 270.805 34.1265H239.555C238.487 34.1265 237.562 34.6994 236.781 35.8452C236.026 36.991 235.648 38.3713 235.648 39.9858V66.353C235.648 67.9676 236.026 69.3478 236.781 70.4937C237.562 71.6395 238.487 72.2124 239.555 72.2124ZM283.759 81.0015H274.97C274.319 81.0015 273.994 80.6759 273.994 80.0249V50.728C273.994 46.6916 275.426 43.241 278.291 40.3765C281.155 37.5119 284.606 36.0796 288.642 36.0796H315.986C316.637 36.0796 316.963 36.4051 316.963 37.0562V43.8921C316.963 44.5431 316.637 44.8687 315.986 44.8687H288.642C287.574 44.8687 286.65 45.4416 285.869 46.5874C285.114 47.7332 284.736 49.1134 284.736 50.728V80.0249C284.736 80.6759 284.41 81.0015 283.759 81.0015ZM343.394 81.0015H332.847C332.196 81.0015 331.545 80.6759 330.894 80.0249L319.175 37.0562C319.175 36.4051 319.501 36.0796 320.152 36.0796H327.964C328.615 36.0796 329.266 36.4051 329.917 37.0562L339.683 72.2124H345.542L355.308 37.0562C355.959 36.4051 356.61 36.0796 357.261 36.0796H365.073C365.724 36.0796 366.05 36.4051 366.05 37.0562L350.425 94.6733C349.774 95.3244 349.123 95.6499 348.472 95.6499H340.659C340.008 95.6499 339.683 95.3244 339.683 94.6733L343.394 81.0015ZM400.489 62.4468H382.911C378.874 62.4468 375.424 61.1577 372.559 58.5796C369.695 56.0015 368.262 52.8895 368.262 49.2437C368.262 45.6239 369.695 42.5249 372.559 39.9468C375.424 37.3687 378.874 36.0796 382.911 36.0796H414.161C414.812 36.0796 415.137 36.4051 415.137 37.0562V43.8921C415.137 44.5431 414.812 44.8687 414.161 44.8687H382.911C381.843 44.8687 380.919 45.2983 380.137 46.1577C379.382 47.0171 379.005 48.0457 379.005 49.2437C379.005 50.4676 379.382 51.5093 380.137 52.3687C380.919 53.228 381.843 53.6577 382.911 53.6577H400.489C404.526 53.6577 407.976 54.9989 410.841 57.6812C413.705 60.3374 415.137 63.5535 415.137 67.3296C415.137 71.1056 413.705 74.3348 410.841 77.0171C407.976 79.6733 404.526 81.0015 400.489 81.0015H369.239C368.588 81.0015 368.262 80.6759 368.262 80.0249V73.189C368.262 72.5379 368.588 72.2124 369.239 72.2124H400.489C401.557 72.2124 402.468 71.7437 403.223 70.8062C404.005 69.8426 404.395 68.6838 404.395 67.3296C404.395 65.9754 404.005 64.8296 403.223 63.8921C402.468 62.9285 401.557 62.4468 400.489 62.4468ZM428.092 44.8687V66.353C428.092 67.9676 428.47 69.3478 429.225 70.4937C430.006 71.6395 430.931 72.2124 431.998 72.2124H441.764C442.415 72.2124 442.741 72.5379 442.741 73.189V80.0249C442.741 80.6759 442.415 81.0015 441.764 81.0015H431.998C427.962 81.0015 424.511 79.5692 421.647 76.7046C418.782 73.84 417.35 70.3895 417.35 66.353V26.314C417.35 25.6629 417.676 25.3374 418.327 25.3374H427.116C427.767 25.3374 428.092 25.6629 428.092 26.314V36.0796H441.764C442.415 36.0796 442.741 36.4051 442.741 37.0562V43.8921C442.741 44.5431 442.415 44.8687 441.764 44.8687H428.092ZM477.18 51.7046V50.728C477.18 49.1134 476.789 47.7332 476.008 46.5874C475.253 45.4416 474.341 44.8687 473.273 44.8687H445.93C445.279 44.8687 444.953 44.5431 444.953 43.8921V37.0562C444.953 36.4051 445.279 36.0796 445.93 36.0796H473.273C477.31 36.0796 480.76 37.5119 483.625 40.3765C486.49 43.241 487.922 46.6916 487.922 50.728V66.353C487.922 70.3895 486.49 73.84 483.625 76.7046C480.76 79.5692 477.31 81.0015 473.273 81.0015H459.602C455.565 81.0015 452.115 79.5692 449.25 76.7046C446.385 73.84 444.953 70.3895 444.953 66.353C444.953 62.3166 446.385 58.866 449.25 56.0015C452.115 53.1369 455.565 51.7046 459.602 51.7046H477.18ZM459.602 60.4937C458.534 60.4937 457.609 61.0666 456.828 62.2124C456.073 63.3582 455.695 64.7384 455.695 66.353C455.695 67.9676 456.073 69.3478 456.828 70.4937C457.609 71.6395 458.534 72.2124 459.602 72.2124H473.273C474.341 72.2124 475.253 71.6395 476.008 70.4937C476.789 69.3478 477.18 67.9676 477.18 66.353V60.4937H459.602ZM491.111 25.3374H499.9C500.551 25.3374 500.877 25.6629 500.877 26.314V80.0249C500.877 80.6759 500.551 81.0015 499.9 81.0015H491.111C490.46 81.0015 490.134 80.6759 490.134 80.0249V26.314C490.134 25.6629 490.46 25.3374 491.111 25.3374Z" fill="#0C0B0B"/>
<path d="M227.2 121.376H222.5V142.001H227.2V121.376ZM232.315 142.001H236.74V134.751C236.74 133.476 238.04 132.251 239.365 132.251C240.79 132.251 241.665 133.476 241.665 134.751V142.001H246.09V133.551C246.09 129.976 242.815 128.801 240.465 128.801C239.065 128.801 237.79 129.526 236.79 130.526H236.74V129.176H232.315V142.001ZM254.219 129.176H248.969L255.844 142.001H258.844L265.719 129.176H260.469L257.344 136.151L254.219 129.176ZM281.743 136.201C281.768 136.051 281.768 135.776 281.768 135.601C281.768 131.101 278.793 128.801 274.893 128.801C271.018 128.801 267.843 131.851 267.843 135.601C267.843 139.326 271.018 142.376 274.893 142.376C277.743 142.376 280.093 141.451 281.543 139.026L278.343 137.426C277.268 138.576 276.643 138.851 275.218 138.851C274.093 138.851 272.443 138.176 272.443 136.201H281.743ZM272.568 133.751C272.643 132.576 273.493 131.676 275.018 131.676C276.318 131.676 277.243 132.401 277.443 133.751H272.568ZM285.907 142.001H290.332V134.751C290.332 133.476 291.632 132.251 292.957 132.251C294.382 132.251 295.257 133.476 295.257 134.751V142.001H299.682V133.551C299.682 129.976 296.407 128.801 294.057 128.801C292.657 128.801 291.382 129.526 290.382 130.526H290.332V129.176H285.907V142.001ZM305.164 129.176H303.314V132.551H305.164V137.476C305.164 139.751 306.014 142.376 309.539 142.376C311.364 142.376 312.789 141.576 312.789 141.576L311.689 138.001C311.689 138.001 311.164 138.401 310.589 138.401C309.889 138.401 309.589 137.826 309.589 136.626V132.551H312.289V129.176H309.589V124.401H305.164V129.176ZM315.477 135.601C315.477 139.551 318.577 142.376 323.202 142.376C327.627 142.376 330.852 139.551 330.852 135.601C330.852 131.601 327.452 128.801 323.202 128.801C318.877 128.801 315.477 131.601 315.477 135.601ZM320.177 135.601C320.177 133.826 321.502 132.576 323.177 132.576C324.827 132.576 326.152 133.826 326.152 135.601C326.152 137.351 324.902 138.601 323.177 138.601C321.377 138.601 320.177 137.351 320.177 135.601ZM335.007 142.001H339.432V135.251C339.432 134.926 339.757 132.651 342.057 132.651C343.532 132.651 344.357 133.351 344.357 133.351L346.207 129.601C346.207 129.601 345.057 128.801 343.407 128.801C340.882 128.801 339.482 131.026 339.482 131.026H339.432V129.176H335.007V142.001ZM359.308 129.176L356.258 135.751L352.683 129.176H347.583L353.658 140.001L349.233 148.501H354.333L364.408 129.176H359.308ZM375.564 135.601C375.564 139.551 378.664 142.376 383.289 142.376C387.714 142.376 390.939 139.551 390.939 135.601C390.939 131.601 387.539 128.801 383.289 128.801C378.964 128.801 375.564 131.601 375.564 135.601ZM380.264 135.601C380.264 133.826 381.589 132.576 383.264 132.576C384.914 132.576 386.239 133.826 386.239 135.601C386.239 137.351 384.989 138.601 383.264 138.601C381.464 138.601 380.264 137.351 380.264 135.601ZM395.094 142.001H399.519V134.751C399.519 133.476 400.819 132.251 402.144 132.251C403.569 132.251 404.444 133.476 404.444 134.751V142.001H408.869V133.551C408.869 129.976 405.594 128.801 403.244 128.801C401.844 128.801 400.569 129.526 399.569 130.526H399.519V129.176H395.094V142.001ZM432.877 137.751C428.152 137.751 426.077 134.451 426.077 131.676C426.077 128.926 428.152 125.626 432.877 125.626C435.277 125.626 436.927 126.901 436.927 126.901L438.927 122.901C438.927 122.901 436.627 121.001 432.152 121.001C426.302 121.001 420.977 125.801 420.977 131.726C420.977 137.626 426.327 142.376 432.152 142.376C436.627 142.376 438.927 140.476 438.927 140.476L436.927 136.476C436.927 136.476 435.277 137.751 432.877 137.751ZM442.851 142.001H447.276V120.501H442.851V142.001ZM451.472 135.601C451.472 139.551 454.572 142.376 459.197 142.376C463.622 142.376 466.847 139.551 466.847 135.601C466.847 131.601 463.447 128.801 459.197 128.801C454.872 128.801 451.472 131.601 451.472 135.601ZM456.172 135.601C456.172 133.826 457.497 132.576 459.172 132.576C460.822 132.576 462.147 133.826 462.147 135.601C462.147 137.351 460.897 138.601 459.172 138.601C457.372 138.601 456.172 137.351 456.172 135.601ZM475.226 129.176H470.801V136.351C470.801 140.651 472.951 142.376 477.751 142.376C482.551 142.376 484.701 140.651 484.701 136.351V129.176H480.276V135.276C480.276 137.801 479.601 138.776 477.751 138.776C475.901 138.776 475.226 137.801 475.226 135.276V129.176ZM488.657 135.601C488.657 139.351 491.282 142.376 495.032 142.376C496.782 142.376 498.282 141.601 499.232 140.551H499.282V142.001H503.657V120.501H499.232V130.401C498.182 129.376 496.757 128.801 495.032 128.801C491.282 128.801 488.657 131.851 488.657 135.601ZM493.357 135.601C493.357 133.826 494.682 132.576 496.357 132.576C498.007 132.576 499.332 133.826 499.332 135.601C499.332 137.351 498.082 138.601 496.357 138.601C494.557 138.601 493.357 137.351 493.357 135.601Z" fill="#0C0B0B"/>
<g clip-path="url(#clip1)">
<path d="M118.462 74.0111H97.4378L86.1172 95.8436L96.2248 114.846L118.462 74.0111Z" fill="#0C0B0B" stroke="#0C0B0B" stroke-width="2.42584"/>
<path d="M133.421 46.1139L153.636 11.7479L166.574 28.3244L144.741 63.9034L133.421 46.1139Z" fill="#0C0B0B" stroke="#0C0B0B" stroke-width="2.42584"/>
<path d="M14.9592 48.9441H109.163L121.696 28.3245H4.04297L14.9592 48.9441Z" fill="#0C0B0B" stroke="#0C0B0B" stroke-width="2.42584"/>
<path d="M113.206 48.9441L123.718 64.712H144.337L144.831 63.9034M113.206 48.9441H59.433L85.3086 94.6307L97.4377 74.0111H120.079L132.208 92.2048L95.0119 156.085H73.1794L2.42578 29.1331L14.1507 10.1307H154.445L166.574 28.3245L144.831 63.9034M113.206 48.9441L111.588 46.5182H133.825L144.831 63.9034" stroke="#0C0B0B" stroke-width="2.42584"/>
<path d="M73.1793 156.085L95.0118 153.659L29.9185 37.2192H6.87305L73.1793 156.085Z" fill="#0C0B0B" stroke="#0C0B0B" stroke-width="2.42584"/>
</g>
<line x1="192.5" y1="166.001" x2="192.5" y2="-0.00154114" stroke="#0C0B0B" stroke-width="3"/>
</g>
<defs>
<clipPath id="clip0">
<rect width="506" height="166.003" fill="white"/>
</clipPath>
<clipPath id="clip1">
<rect width="169" height="146.359" fill="white" transform="translate(0 9.32208)"/>
</clipPath>
</defs>
</svg>
