<svg width="506" height="168" viewBox="0 0 506 168" fill="none" xmlns="http://www.w3.org/2000/svg">
<g clip-path="url(#clip0)">
<path d="M239.555 73.2109H270.805C271.456 73.2109 271.781 73.5365 271.781 74.1875V81.0234C271.781 81.6745 271.456 82 270.805 82H239.555C235.518 82 232.068 80.5677 229.203 77.7031C226.339 74.8385 224.906 71.388 224.906 67.3516V40.9844C224.906 36.9479 226.339 33.4974 229.203 30.6328C232.068 27.7682 235.518 26.3359 239.555 26.3359H270.805C271.456 26.3359 271.781 26.6615 271.781 27.3125V34.1484C271.781 34.7995 271.456 35.125 270.805 35.125H239.555C238.487 35.125 237.562 35.6979 236.781 36.8438C236.026 37.9896 235.648 39.3698 235.648 40.9844V67.3516C235.648 68.9661 236.026 70.3464 236.781 71.4922C237.562 72.638 238.487 73.2109 239.555 73.2109ZM283.759 82H274.97C274.319 82 273.994 81.6745 273.994 81.0234V51.7266C273.994 47.6901 275.426 44.2396 278.291 41.375C281.155 38.5104 284.606 37.0781 288.642 37.0781H315.986C316.637 37.0781 316.963 37.4036 316.963 38.0547V44.8906C316.963 45.5417 316.637 45.8672 315.986 45.8672H288.642C287.574 45.8672 286.65 46.4401 285.869 47.5859C285.114 48.7318 284.736 50.112 284.736 51.7266V81.0234C284.736 81.6745 284.41 82 283.759 82ZM343.394 82H332.847C332.196 82 331.545 81.6745 330.894 81.0234L319.175 38.0547C319.175 37.4036 319.501 37.0781 320.152 37.0781H327.964C328.615 37.0781 329.266 37.4036 329.917 38.0547L339.683 73.2109H345.542L355.308 38.0547C355.959 37.4036 356.61 37.0781 357.261 37.0781H365.073C365.724 37.0781 366.05 37.4036 366.05 38.0547L350.425 95.6719C349.774 96.3229 349.123 96.6484 348.472 96.6484H340.659C340.008 96.6484 339.683 96.3229 339.683 95.6719L343.394 82ZM400.489 63.4453H382.911C378.874 63.4453 375.424 62.1562 372.559 59.5781C369.695 57 368.262 53.888 368.262 50.2422C368.262 46.6224 369.695 43.5234 372.559 40.9453C375.424 38.3672 378.874 37.0781 382.911 37.0781H414.161C414.812 37.0781 415.137 37.4036 415.137 38.0547V44.8906C415.137 45.5417 414.812 45.8672 414.161 45.8672H382.911C381.843 45.8672 380.919 46.2969 380.137 47.1562C379.382 48.0156 379.005 49.0443 379.005 50.2422C379.005 51.4661 379.382 52.5078 380.137 53.3672C380.919 54.2266 381.843 54.6562 382.911 54.6562H400.489C404.526 54.6562 407.976 55.9974 410.841 58.6797C413.705 61.3359 415.137 64.5521 415.137 68.3281C415.137 72.1042 413.705 75.3333 410.841 78.0156C407.976 80.6719 404.526 82 400.489 82H369.239C368.588 82 368.262 81.6745 368.262 81.0234V74.1875C368.262 73.5365 368.588 73.2109 369.239 73.2109H400.489C401.557 73.2109 402.468 72.7422 403.223 71.8047C404.005 70.8411 404.395 69.6823 404.395 68.3281C404.395 66.974 404.005 65.8281 403.223 64.8906C402.468 63.9271 401.557 63.4453 400.489 63.4453ZM428.092 45.8672V67.3516C428.092 68.9661 428.47 70.3464 429.225 71.4922C430.006 72.638 430.931 73.2109 431.998 73.2109H441.764C442.415 73.2109 442.741 73.5365 442.741 74.1875V81.0234C442.741 81.6745 442.415 82 441.764 82H431.998C427.962 82 424.511 80.5677 421.647 77.7031C418.782 74.8385 417.35 71.388 417.35 67.3516V27.3125C417.35 26.6615 417.676 26.3359 418.327 26.3359H427.116C427.767 26.3359 428.092 26.6615 428.092 27.3125V37.0781H441.764C442.415 37.0781 442.741 37.4036 442.741 38.0547V44.8906C442.741 45.5417 442.415 45.8672 441.764 45.8672H428.092ZM477.18 52.7031V51.7266C477.18 50.112 476.789 48.7318 476.008 47.5859C475.253 46.4401 474.341 45.8672 473.273 45.8672H445.93C445.279 45.8672 444.953 45.5417 444.953 44.8906V38.0547C444.953 37.4036 445.279 37.0781 445.93 37.0781H473.273C477.31 37.0781 480.76 38.5104 483.625 41.375C486.49 44.2396 487.922 47.6901 487.922 51.7266V67.3516C487.922 71.388 486.49 74.8385 483.625 77.7031C480.76 80.5677 477.31 82 473.273 82H459.602C455.565 82 452.115 80.5677 449.25 77.7031C446.385 74.8385 444.953 71.388 444.953 67.3516C444.953 63.3151 446.385 59.8646 449.25 57C452.115 54.1354 455.565 52.7031 459.602 52.7031H477.18ZM459.602 61.4922C458.534 61.4922 457.609 62.0651 456.828 63.2109C456.073 64.3568 455.695 65.737 455.695 67.3516C455.695 68.9661 456.073 70.3464 456.828 71.4922C457.609 72.638 458.534 73.2109 459.602 73.2109H473.273C474.341 73.2109 475.253 72.638 476.008 71.4922C476.789 70.3464 477.18 68.9661 477.18 67.3516V61.4922H459.602ZM491.111 26.3359H499.9C500.551 26.3359 500.877 26.6615 500.877 27.3125V81.0234C500.877 81.6745 500.551 82 499.9 82H491.111C490.46 82 490.134 81.6745 490.134 81.0234V27.3125C490.134 26.6615 490.46 26.3359 491.111 26.3359Z" fill="#E74C32"/>
<path d="M227.2 122.375H222.5V143H227.2V122.375ZM232.315 143H236.74V135.75C236.74 134.475 238.04 133.25 239.365 133.25C240.79 133.25 241.665 134.475 241.665 135.75V143H246.09V134.55C246.09 130.975 242.815 129.8 240.465 129.8C239.065 129.8 237.79 130.525 236.79 131.525H236.74V130.175H232.315V143ZM254.219 130.175H248.969L255.844 143H258.844L265.719 130.175H260.469L257.344 137.15L254.219 130.175ZM281.743 137.2C281.768 137.05 281.768 136.775 281.768 136.6C281.768 132.1 278.793 129.8 274.893 129.8C271.018 129.8 267.843 132.85 267.843 136.6C267.843 140.325 271.018 143.375 274.893 143.375C277.743 143.375 280.093 142.45 281.543 140.025L278.343 138.425C277.268 139.575 276.643 139.85 275.218 139.85C274.093 139.85 272.443 139.175 272.443 137.2H281.743ZM272.568 134.75C272.643 133.575 273.493 132.675 275.018 132.675C276.318 132.675 277.243 133.4 277.443 134.75H272.568ZM285.907 143H290.332V135.75C290.332 134.475 291.632 133.25 292.957 133.25C294.382 133.25 295.257 134.475 295.257 135.75V143H299.682V134.55C299.682 130.975 296.407 129.8 294.057 129.8C292.657 129.8 291.382 130.525 290.382 131.525H290.332V130.175H285.907V143ZM305.164 130.175H303.314V133.55H305.164V138.475C305.164 140.75 306.014 143.375 309.539 143.375C311.364 143.375 312.789 142.575 312.789 142.575L311.689 139C311.689 139 311.164 139.4 310.589 139.4C309.889 139.4 309.589 138.825 309.589 137.625V133.55H312.289V130.175H309.589V125.4H305.164V130.175ZM315.477 136.6C315.477 140.55 318.577 143.375 323.202 143.375C327.627 143.375 330.852 140.55 330.852 136.6C330.852 132.6 327.452 129.8 323.202 129.8C318.877 129.8 315.477 132.6 315.477 136.6ZM320.177 136.6C320.177 134.825 321.502 133.575 323.177 133.575C324.827 133.575 326.152 134.825 326.152 136.6C326.152 138.35 324.902 139.6 323.177 139.6C321.377 139.6 320.177 138.35 320.177 136.6ZM335.007 143H339.432V136.25C339.432 135.925 339.757 133.65 342.057 133.65C343.532 133.65 344.357 134.35 344.357 134.35L346.207 130.6C346.207 130.6 345.057 129.8 343.407 129.8C340.882 129.8 339.482 132.025 339.482 132.025H339.432V130.175H335.007V143ZM359.308 130.175L356.258 136.75L352.683 130.175H347.583L353.658 141L349.233 149.5H354.333L364.408 130.175H359.308ZM375.564 136.6C375.564 140.55 378.664 143.375 383.289 143.375C387.714 143.375 390.939 140.55 390.939 136.6C390.939 132.6 387.539 129.8 383.289 129.8C378.964 129.8 375.564 132.6 375.564 136.6ZM380.264 136.6C380.264 134.825 381.589 133.575 383.264 133.575C384.914 133.575 386.239 134.825 386.239 136.6C386.239 138.35 384.989 139.6 383.264 139.6C381.464 139.6 380.264 138.35 380.264 136.6ZM395.094 143H399.519V135.75C399.519 134.475 400.819 133.25 402.144 133.25C403.569 133.25 404.444 134.475 404.444 135.75V143H408.869V134.55C408.869 130.975 405.594 129.8 403.244 129.8C401.844 129.8 400.569 130.525 399.569 131.525H399.519V130.175H395.094V143ZM432.877 138.75C428.152 138.75 426.077 135.45 426.077 132.675C426.077 129.925 428.152 126.625 432.877 126.625C435.277 126.625 436.927 127.9 436.927 127.9L438.927 123.9C438.927 123.9 436.627 122 432.152 122C426.302 122 420.977 126.8 420.977 132.725C420.977 138.625 426.327 143.375 432.152 143.375C436.627 143.375 438.927 141.475 438.927 141.475L436.927 137.475C436.927 137.475 435.277 138.75 432.877 138.75ZM442.851 143H447.276V121.5H442.851V143ZM451.472 136.6C451.472 140.55 454.572 143.375 459.197 143.375C463.622 143.375 466.847 140.55 466.847 136.6C466.847 132.6 463.447 129.8 459.197 129.8C454.872 129.8 451.472 132.6 451.472 136.6ZM456.172 136.6C456.172 134.825 457.497 133.575 459.172 133.575C460.822 133.575 462.147 134.825 462.147 136.6C462.147 138.35 460.897 139.6 459.172 139.6C457.372 139.6 456.172 138.35 456.172 136.6ZM475.226 130.175H470.801V137.35C470.801 141.65 472.951 143.375 477.751 143.375C482.551 143.375 484.701 141.65 484.701 137.35V130.175H480.276V136.275C480.276 138.8 479.601 139.775 477.751 139.775C475.901 139.775 475.226 138.8 475.226 136.275V130.175ZM488.657 136.6C488.657 140.35 491.282 143.375 495.032 143.375C496.782 143.375 498.282 142.6 499.232 141.55H499.282V143H503.657V121.5H499.232V131.4C498.182 130.375 496.757 129.8 495.032 129.8C491.282 129.8 488.657 132.85 488.657 136.6ZM493.357 136.6C493.357 134.825 494.682 133.575 496.357 133.575C498.007 133.575 499.332 134.825 499.332 136.6C499.332 138.35 498.082 139.6 496.357 139.6C494.557 139.6 493.357 138.35 493.357 136.6Z" fill="#E74C32"/>
<g clip-path="url(#clip1)">
<path d="M118.462 75.0096H97.4378L86.1172 96.8421L96.2249 115.845L118.462 75.0096Z" fill="#F6F6F6" stroke="#F6F6F6" stroke-width="2.42584"/>
<path d="M133.421 47.1125L153.636 12.7464L166.574 29.323L144.742 64.9019L133.421 47.1125Z" fill="#F6F6F6" stroke="#F6F6F6" stroke-width="2.42584"/>
<path d="M14.9593 49.9426H109.163L121.696 29.323H4.04306L14.9593 49.9426Z" fill="#F6F6F6" stroke="#F6F6F6" stroke-width="2.42584"/>
<path d="M113.206 49.9426L123.718 65.7105H144.337L144.831 64.9019M113.206 49.9426H59.433L85.3086 95.6292L97.4378 75.0096H120.079L132.208 93.2034L95.012 157.084H73.1794L2.42584 30.1316L14.1507 11.1292H154.445L166.574 29.323L144.831 64.9019M113.206 49.9426L111.589 47.5168H133.825L144.831 64.9019" stroke="#F6F6F6" stroke-width="2.42584"/>
<path d="M73.1794 157.084L95.012 154.658L29.9187 38.2177H6.8732L73.1794 157.084Z" fill="#F6F6F6" stroke="#F6F6F6" stroke-width="2.42584"/>
</g>
<line x1="192.5" y1="167" x2="192.5" y2="0.996994" stroke="#E74C32" stroke-width="3"/>
</g>
<defs>
<clipPath id="clip0">
<rect width="506" height="166.003" fill="white" transform="translate(0 0.998535)"/>
</clipPath>
<clipPath id="clip1">
<rect width="169" height="146.359" fill="white" transform="translate(0 10.3206)"/>
</clipPath>
</defs>
</svg>
